<?xml version='1.0' encoding='utf-8'?>
<svg width="78.35mm" height="78.35mm" viewBox="-39.175 -39.175 78.35 78.35" version="1.1" xmlns="http://www.w3.org/2000/svg">
  <g transform="scale(1,-1)" stroke-linecap="round">
    <g fill="none" stroke="rgb(0,0,0)" stroke-width="0.35" id="visible">
      <circle cx="0.0" cy="0.0" r="38.0" />
      <circle cx="0.0" cy="0.0" r="9.525" />
      <circle cx="0.0" cy="0.0" r="7.875" />
    </g>
    <g fill="none" stroke="rgb(100,100,100)" stroke-width="0.2" id="hidden" stroke-dasharray="2.4 3.6">
      <circle cx="0.0" cy="0.0" r="38.0" />
      <circle cx="0.0" cy="0.0" r="9.525" />
      <circle cx="0.0" cy="0.0" r="7.875" />
      <circle cx="0.0" cy="0.0" r="29.0" />
      <circle cx="0.0" cy="0.0" r="29.0" />
      <circle cx="0.0" cy="0.0" r="35.2" />
      <circle cx="0.0" cy="0.0" r="35.2" />
      <circle cx="0.0" cy="0.0" r="35.0" />
      <circle cx="0.0" cy="0.0" r="35.0" />
      <circle cx="0.0" cy="0.0" r="29.0" />
      <circle cx="0.0" cy="0.0" r="29.0" />
      <circle cx="0.0" cy="0.0" r="35.0" />
      <circle cx="0.0" cy="0.0" r="35.0" />
      <circle cx="0.0" cy="0.0" r="35.0" />
      <circle cx="0.0" cy="0.0" r="35.0" />
      <circle cx="0.0" cy="0.0" r="35.0" />
      <circle cx="0.0" cy="0.0" r="35.0" />
      <circle cx="0.0" cy="-0.0" r="35.0" />
      <circle cx="0.0" cy="-0.0" r="35.0" />
      <circle cx="0.0" cy="-0.0" r="29.0" />
      <circle cx="0.0" cy="-0.0" r="29.0" />
      <circle cx="0.0" cy="0.0" r="38.0" />
      <circle cx="0.0" cy="-0.0" r="38.0" />
      <circle cx="0.0" cy="-0.0" r="9.525" />
      <circle cx="0.0" cy="-0.0" r="9.525" />
      <circle cx="0.0" cy="-0.0" r="7.875" />
      <circle cx="0.0" cy="-0.0" r="7.875" />
      <circle cx="0.0" cy="-0.0" r="29.0" />
      <circle cx="0.0" cy="-0.0" r="29.0" />
      <circle cx="0.0" cy="-0.0" r="35.2" />
      <circle cx="0.0" cy="0.0" r="35.2" />
    </g>
  </g>
</svg>